<?xml version="1.0" encoding="utf-8"?>
<!-- Generator: Adobe Illustrator 27.1.1, SVG Export Plug-In . SVG Version: 6.00 Build 0)  -->
<svg version="1.1" id="Layer_1" xmlns="http://www.w3.org/2000/svg" xmlns:xlink="http://www.w3.org/1999/xlink" x="0px" y="0px"
	 viewBox="0 0 196.5 12.6" style="enable-background:new 0 0 196.5 12.6;" xml:space="preserve">
<style type="text/css">
	.st0{fill:#231F20;}
</style>
<g>
	<path class="st0" d="M0.1,12C0.7,11.8,1,11.5,1,10.9V1.6C1,1,0.7,0.7,0.1,0.5l0-0.1h7.7c4.5,0,9.5,1.6,9.5,5.6c0,4.1-5.1,6-9.7,6
		L0.1,12L0.1,12z M7.8,11.2c3.7,0,6.5-1.6,6.5-5c0-3.1-2.2-4.8-6.5-4.8h-4v9.8H7.8z"/>
	<path class="st0" d="M20.1,11c-0.4,0.6-0.3,0.8,0.3,1l0,0.1h-3l0-0.1c0.6-0.2,0.9-0.4,1.2-0.8l7.9-11.1h0.2L34.2,11
		c0.4,0.6,0.6,0.8,1.1,0.9l0,0.1h-4.9l0-0.1c0.7-0.1,0.9-0.4,0.4-1.2l-1.5-2.1c0,0-7.6,0-7.6,0L20.1,11z M25.6,3.1l-3.3,4.7h6.5
		C28.8,7.8,25.6,3.1,25.6,3.1z"/>
	<path class="st0" d="M50.3,0.5c-0.6,0.2-0.8,0.4-1.1,0.9l-7.5,10.9h-0.2L33.7,1.5c-0.4-0.6-0.6-0.8-1.2-0.9l0-0.1h4.9l0,0.1
		c-0.7,0.1-0.8,0.4-0.3,1.2l5.4,7.6l5.2-7.7c0.4-0.7,0.3-1-0.4-1.1l0-0.1L50.3,0.5L50.3,0.5z"/>
	<path class="st0" d="M52.5,11.9c0.9-0.3,1.3-0.5,1.3-1.3V1.9c0-0.8-0.4-1-1.3-1.3l0-0.1h5.3l0,0.1c-0.9,0.3-1.3,0.5-1.3,1.3v8.8
		c0,0.8,0.4,1,1.3,1.3l0,0.1L52.5,11.9L52.5,11.9z"/>
	<path class="st0" d="M60.6,12c0.6-0.2,0.9-0.4,0.9-1.1V1.6c0-0.6-0.3-0.9-0.9-1.1l0-0.1h7.7c4.5,0,9.5,1.6,9.5,5.6
		c0,4.1-5.1,6-9.7,6L60.6,12L60.6,12z M68.3,11.2c3.7,0,6.5-1.6,6.5-5c0-3.1-2.2-4.8-6.5-4.8h-4v9.8H68.3z"/>
	<path class="st0" d="M86.9,1.3c-0.5-0.5-0.8-0.6-1.3-0.8l0-0.1h5l0,0.1c-0.6,0.1-0.7,0.4-0.2,1l4.2,4.2l3.9-4.2
		C99,1,98.7,0.7,98.1,0.5l0-0.1h3.1l0,0.1c-0.6,0.2-0.7,0.2-1.2,0.8l-4.8,5.2c0,0,0,4.2,0,4.2c0,0.8,0.4,1,1.2,1.3l0,0.1h-5.2l0-0.1
		c0.9-0.2,1.2-0.5,1.2-1.3V6.9L86.9,1.3z"/>
	<path class="st0" d="M104.6,7.4V1.6c0-0.6-0.3-0.9-0.9-1.1l0-0.1h4.4l0,0.1c-0.6,0.2-0.8,0.4-0.8,1v6.5c0,2.3,1.6,3.2,5,3.2
		c3.5,0,4.7-1.3,4.7-3.7v-6c0-0.6-0.2-0.9-0.9-1.1l0-0.1h3l0,0.1c-0.7,0.2-0.9,0.5-0.9,1.1v5.9c0,2.9-1.9,4.7-6.3,4.7
		C107.6,12.2,104.6,11,104.6,7.4z"/>
	<path class="st0" d="M133.6,8.7c2.2,2.9,2.5,3,3.8,3.3l0,0.1h-1.9c-2.3,0-3-0.4-4.7-2.7c-1.9-2.5-2.3-2.9-4.1-2.9h-1.4v4.4
		c0,0.6,0.3,0.8,0.9,1l0,0.1h-4.5l0-0.1c0.6-0.2,0.9-0.4,0.9-1.1V1.6c0-0.6-0.3-0.9-0.9-1.1l0-0.1h6.7c4,0,6.1,1.1,6.1,3
		c0,1.7-2.1,2.6-4.8,2.8C131.5,6.5,132.4,7.1,133.6,8.7z M128.4,5.8c2.1,0,3.4-0.7,3.4-2.2c0-1.6-1.4-2.2-3.6-2.2h-2.8v4.4H128.4z"
		/>
	<path class="st0" d="M141.8,10.9c0,0.6,0.2,0.8,0.8,1l0,0.1h-2.8l0-0.1c0.6-0.2,0.9-0.4,0.9-1.1V1.6c0-0.6-0.3-0.9-0.9-1.1l0-0.1
		h3.9l5.9,7.9l5.8-7.9h3.5l0,0.1c-0.6,0.2-0.9,0.4-0.9,1.1v9.3c0,0.6,0.2,0.9,0.9,1.1l0,0.1h-4.4l0-0.1c0.6-0.2,0.8-0.4,0.8-1V2.2
		l-6.6,9h-0.2l-6.7-9V10.9z"/>
	<path class="st0" d="M163.4,11c-0.4,0.6-0.3,0.8,0.3,1l0,0.1h-3l0-0.1c0.6-0.2,0.9-0.4,1.2-0.8l7.9-11.1h0.2l7.5,10.9
		c0.4,0.6,0.6,0.8,1.1,0.9l0,0.1h-4.9l0-0.1c0.7-0.1,0.9-0.4,0.4-1.2l-1.5-2.1c0,0-7.6,0-7.6,0L163.4,11z M169,3.1l-3.3,4.7h6.5
		C172.2,7.8,169,3.1,169,3.1z"/>
	<path class="st0" d="M182.6,2.6v8.3c0,0.7,0.3,0.8,1,1l0,0.1h-3l0-0.1c0.6-0.2,0.9-0.4,0.9-1.1V1.6c0-0.6-0.3-0.9-0.9-1.1l0-0.1
		h3.4l10.5,7.9V1.6c0-0.7-0.3-0.8-1-1l0-0.1h3l0,0.1c-0.6,0.2-0.9,0.4-0.9,1.1v10.7h-0.2L182.6,2.6z"/>
</g>
</svg>
